<?xml version="1.0" encoding="UTF-8"?>
<svg width="36px" height="36px" viewBox="0 0 36 36" version="1.1" xmlns="http://www.w3.org/2000/svg" xmlns:xlink="http://www.w3.org/1999/xlink">
    <!-- Generator: Sketch 50.2 (55047) - http://www.bohemiancoding.com/sketch -->
    <title>Artboard 4 Copy 30</title>
    <desc>Created with Sketch.</desc>
    <defs></defs>
    <g id="Artboard-4-Copy-30" stroke="none" stroke-width="1" fill="none" fill-rule="evenodd">
        <path d="M15.92,19.2675268 C13.8222449,19.2675268 12.0889315,16.9756384 11.8104304,14 L11.24,14 C11.5569058,17.3889741 13.5311213,20 15.92,20 C18.3091473,20 20.2833628,17.3889741 20.6,14 L20.0298382,14 C19.7510685,16.9756384 18.0180236,19.2675268 15.92,19.2675268 Z" id="Shape" fill="#D0021B" fill-rule="nonzero"></path>
        <path d="M24.249398,25.7793519 L24.2367891,25.8390089 L24.2057067,25.9903609 L24.090174,26.099732 L24.0429639,26.1444747 L23.4661798,26.6863589 C23.2667832,26.8697488 23.0040488,26.970558 22.7260665,26.970558 C22.4463248,26.970558 22.181831,26.8680917 21.9765698,26.6780732 L20.7274086,25.4973623 C20.5271323,25.3087247 20.4174641,25.0579445 20.418637,24.79225 C20.4192235,24.5251746 20.5303578,24.2749467 20.7303409,24.0893473 L21.3009671,23.5540917 L21.3464178,23.5112823 L21.4642964,23.400254 L21.6285054,23.3715303 L21.689204,23.3610351 L21.7575267,23.3486065 L23.5444723,21.6735161 C22.7703443,21.64424 22.0466518,21.3498218 21.4947923,20.8311376 C21.0150675,20.3787389 20.7112809,19.7981882 20.6212592,19.1734471 C20.3822765,19.116552 20.139775,19.0673903 19.8917021,19.0350761 C19.8799729,19.033419 19.8676573,19.0325904 19.8556348,19.0303809 C19.760335,19.0190571 19.6641554,19.0082857 19.5673894,19 C19.5670962,19.0091143 19.5641639,19.0185047 19.5638706,19.0278952 C19.5626977,19.0546856 19.5577128,19.080095 19.554194,19.1074378 C19.536307,19.2587897 19.4885104,19.4057226 19.4137367,19.5471318 C18.9090873,20.7433093 17.2772606,23.009998 16.3163448,24.2962133 L16.1184143,21.6229734 C16.3990357,21.4873643 16.6403643,21.2633744 16.7951899,21.0026514 C16.9063242,20.8153948 16.9746469,20.6112906 16.9746469,20.4030436 C16.9746469,20.4030436 16.2576987,20.7024332 15.5257958,20.7024332 C15.4838639,20.7024332 15.4422252,20.7007761 15.4005865,20.6988427 C15.3586545,20.7007761 15.317309,20.7024332 15.2753771,20.7024332 C14.5434742,20.7024332 13.8265261,20.4030436 13.8265261,20.4030436 C13.8265261,20.6112906 13.8945555,20.8153948 14.005983,21.0026514 C14.1608086,21.2633744 14.4021372,21.4873643 14.6827586,21.6229734 L14.4848282,24.2962133 C13.5236191,23.009998 11.8917924,20.7433093 11.3874362,19.5471318 C11.312076,19.4057226 11.2642795,19.2587897 11.2463924,19.1074378 C11.2428737,19.080095 11.2378887,19.0546856 11.2367158,19.0278952 C11.2364226,19.0187809 11.2337835,19.0093904 11.2334903,19 C11.136431,19.0082857 11.0402515,19.0190571 10.9449516,19.0303809 C10.932636,19.0325904 10.9206135,19.033419 10.9088843,19.0350761 C7.56957735,19.4720082 5,22.1720385 5,25.4374291 C5,29.0085617 8.07393352,28.9999998 11.8651084,28.9999998 L15.4,28.9999998 L18.9351848,28.9999998 C22.7263597,28.9999998 25.8,29.0082855 25.8,25.4374291 C25.8,25.0714778 25.7633462,24.7140883 25.7011814,24.3647084 L24.2620069,25.7147236 L24.249398,25.7793519 Z" id="Shape" fill="#D0021B" fill-rule="nonzero"></path>
        <path d="M10.9068136,13 L11.0699244,13 L11.9489105,13 L12.2869398,13 L19.5533348,13 L19.8913641,13 L20.7703502,13 L20.9329118,13 C21.3236639,13 21.64,12.7131246 21.64,12.3595687 C21.64,12.005764 21.3236639,11.7186399 20.9329118,11.7186399 L20.7404191,11.7186399 C20.7404191,10.0162969 19.6645467,8.54260834 18.0963213,7.82181215 L17.9527068,8.56002488 L17.6967821,9.87397885 C17.6652034,10.0364503 17.5095067,10.1509019 17.3337644,10.1509019 C17.3123458,10.1509019 17.2906526,10.1491603 17.2689595,10.145677 C17.0676796,10.1135808 16.9336761,9.94016173 16.9693738,9.75778561 L17.250836,8.30972424 L17.4252053,7.41326975 C17.2538566,7.16495957 16.9504265,7 16.6036101,7 L15.2355661,7 C14.8890243,7 14.5858688,7.16520838 14.4142455,7.41326975 L14.5886148,8.30972424 L14.8703516,9.75778561 C14.9057747,9.94016173 14.7717712,10.1135808 14.5704913,10.145677 C14.5487982,10.1494091 14.5273796,10.1509019 14.5062356,10.1509019 C14.3299441,10.1509019 14.1739728,10.0366991 14.1423941,9.87397885 L13.886744,8.56027369 L13.7431295,7.82230977 C12.1746295,8.54285714 11.0993063,10.0162969 11.0993063,11.7186399 L10.9068136,11.7186399 C10.5163361,11.7186399 10.2,12.005764 10.2,12.3595687 C10.2002746,12.7131246 10.5166107,13 10.9068136,13 Z" id="Shape" fill="#313131" fill-rule="nonzero"></path>
        <path d="M25.3774919,21 L24.9788469,21.0938981 L24.920553,21.1079389 L24.8774398,21.1491839 L22.7409089,23.1979758 L22.5028756,23.2418534 L22.4369914,23.2535541 L22.3902348,23.2988943 L21.7981878,23.8666706 C21.6964771,23.9634938 21.6400049,24.0933716 21.6400049,24.2314398 C21.6393977,24.3698005 21.694959,24.4993857 21.7963661,24.596794 L23.0906721,25.8481835 C23.1942044,25.9461768 23.3287054,26 23.4714039,26 C23.6131916,26 23.7467817,25.9470543 23.8484924,25.8516937 L24.4411467,25.2818698 L24.4882068,25.2362371 L24.5009586,25.1730533 L24.5468043,24.9434271 L26.6818172,22.8946352 L26.7249303,22.8533903 L26.7395038,22.7969344 L26.84,22.4090563 L25.3774919,21 Z" id="Shape" fill="#313131" fill-rule="nonzero"></path>
        <path d="M27.3677149,17.2407212 L27.4993166,17.3860171 L27.6322264,17.2418721 L27.7423742,17.1224705 C27.9009241,17.3563825 28.1243592,17.8043541 27.8117071,18.1458713 C27.7020826,18.266136 27.3763488,18.6214635 26.9865148,19.0469934 L28.1214812,20.2956747 L28.9273126,19.4083629 C28.9958606,19.3620409 29.1625212,19.2696845 29.3022335,19.2696845 C29.385433,19.2696845 29.4257245,19.3027717 29.448225,19.3280905 C29.8205296,19.7375084 29.5152032,20.3192673 29.5123253,20.3253093 L29.4388062,20.4628369 L29.5411049,20.575621 L29.8061398,20.867939 L29.9257063,21 L30.0570463,20.8823247 C30.0944599,20.8489498 30.9719789,20.0525559 30.9984039,19.0242639 C31.0235207,18.0540903 30.7443577,17.6492759 30.7124384,17.6061187 L30.7058976,17.597775 L30.6993568,17.5905821 L29.6779393,16.462741 L29.6449735,16.4267766 L29.6007574,16.41124 L28.8305082,16.1497075 L28.7308258,16.0395128 L28.8807418,15.8763786 L29.0141749,15.7310828 L28.8815267,15.584636 L28.4644828,15.1234296 C28.3920103,15.0437326 28.2959908,15 28.1942153,15 C28.0929632,15 27.9977285,15.0428695 27.9265642,15.1214156 L26.9517175,16.1894121 C26.8800299,16.2679582 26.84,16.3735494 26.84,16.4854704 C26.84,16.5971037 26.879245,16.7018318 26.9511943,16.7806656 L27.3677149,17.2407212 Z" id="Shape" fill="#313131" fill-rule="nonzero"></path>
        <path d="M30.7136816,23.3947177 L26.2058402,19.0610838 C26.5200685,18.2550394 26.3411708,17.3107711 25.6656072,16.6623229 C25.2293908,16.2421536 24.6646513,16.0217284 24.0931044,16 L23.6508975,16.4248815 L24.7498796,17.4817185 L24.7496073,18.3597545 L24.0931044,18.989354 L23.1817335,18.989354 L22.0822069,17.9330405 L21.64,18.3581838 C21.6620559,18.9084616 21.8916005,19.4503621 22.3286337,19.871055 C22.7890843,20.3129527 23.3924897,20.5339015 23.9950782,20.5339015 C24.2758142,20.5339015 24.5568225,20.4857326 24.8231269,20.3899183 L29.3309683,24.7243375 C29.5213024,24.9081125 29.7712691,25 30.0209635,25 C30.2717471,25 30.5225306,24.9078507 30.7136816,24.7243375 C31.0962559,24.3567876 31.0946221,23.7609587 30.7136816,23.3947177 Z M29.6887638,23.7389686 C29.7810717,23.6494372 29.9019706,23.6049332 30.0234142,23.6049332 C30.1437685,23.6049332 30.2643951,23.6489136 30.3569754,23.7373978 C30.5405021,23.9154135 30.5399575,24.20338 30.3569754,24.3803485 C30.2641228,24.4690945 30.1434962,24.5130748 30.0225973,24.5130748 C29.9016984,24.5130748 29.7807994,24.4690945 29.6879469,24.3800867 C29.5041479,24.2036418 29.5036033,23.9159371 29.6887638,23.7389686 Z" id="Shape" fill="#313131" fill-rule="nonzero"></path>
    </g>
</svg>