<?xml version="1.0" encoding="UTF-8"?>
<svg width="36px" height="36px" viewBox="0 0 36 36" version="1.1" xmlns="http://www.w3.org/2000/svg" xmlns:xlink="http://www.w3.org/1999/xlink">
    <!-- Generator: Sketch 50.2 (55047) - http://www.bohemiancoding.com/sketch -->
    <title>Artboard 4 Copy 27</title>
    <desc>Created with Sketch.</desc>
    <defs></defs>
    <g id="Artboard-4-Copy-27" stroke="none" stroke-width="1" fill="none" fill-rule="evenodd">
        <g id="Delivery_Icon" transform="translate(2.000000, 4.000000)">
            <path d="M32,22.9449004 L31.3244444,23.1418523 C31.1466667,22.6494725 30.8622222,22.1899179 30.5066667,21.7960141 C29.5111111,20.7127784 27.9466667,20.1875733 26.4533333,20.4173505 C24.2844444,20.7456038 22.6488889,22.5838218 22.7555556,24.6189918 C22.7555556,24.7174678 22.7911111,24.8487691 22.7911111,24.947245 L14.0444444,24.947245 C14.08,24.7174678 14.1155556,24.4876905 14.1155556,24.2579132 C14.0088889,22.3212192 12.4088889,20.6799531 10.3466667,20.4173505 C9.03111111,20.2532239 7.78666667,20.5814771 6.79111111,21.3692849 C5.83111111,22.1570926 5.26222222,23.2731536 5.26222222,24.4548652 C5.26222222,24.6189918 5.26222222,24.7831184 5.29777778,24.947245 L4.16,24.947245 L1.06666667,19.6295428 C0.391111111,18.4806565 1.10222222,16.905041 2.80888889,16.905041 C3.16444444,16.905041 15.8933333,16.905041 15.8933333,16.905041 L15.8933333,22.4853458 L20.5155556,22.4853458 L23.6444444,17.7913247 L21.5111111,13.0644783 C21.4044444,13.0644783 21.2977778,13.031653 21.1911111,12.9660023 C20.9777778,12.8347011 20.8355556,12.6377491 20.8355556,12.3751465 C20.8355556,11.9812427 21.1911111,11.6858148 21.5822222,11.6858148 C21.8311111,11.6858148 22.0088889,11.7842907 22.1511111,11.9484174 C22.1511111,11.9484174 23.2533333,13.2942556 24.5688889,14.869871 C24.7466667,14.147714 25.4577778,13.6225088 26.2755556,13.6225088 C26.6311111,13.6225088 26.9866667,13.7209848 27.2711111,13.9179367 L27.2711111,16.6096131 C26.9866667,16.7737397 26.6311111,16.905041 26.2755556,16.905041 C26.2755556,16.905041 26.24,16.905041 26.24,16.905041 C27.6266667,18.5791325 28.8355556,20.0234467 28.8355556,20.0234467 C30.3288889,20.4830012 31.5022222,21.5334115 32,22.9449004 Z M9.24444444,8.5017585 L9.24444444,16.0515826 L0,16.0515826 L0,8.5017585 L9.24444444,8.5017585 Z M3.55555556,12.7033998 L3.55555556,9.48651817 L1.06666667,9.48651817 L1.06666667,15.066823 L8.17777778,15.066823 L8.17777778,9.48651817 L5.68888889,9.48651817 L5.68888889,12.7033998 L4.62222222,11.5873388 L3.55555556,12.7033998 Z M31.04,24.4548652 C31.04,26.3915592 29.3333333,28 27.2,28 C25.0666667,28 23.36,26.4243845 23.36,24.4548652 C23.36,22.5181712 25.0666667,20.9097304 27.2,20.9097304 C29.2977778,20.9097304 31.04,22.4853458 31.04,24.4548652 Z M28.1244444,24.4548652 C28.1244444,23.9624853 27.6977778,23.5685815 27.1644444,23.5685815 C26.6311111,23.5685815 26.2044444,23.9624853 26.2044444,24.4548652 C26.2044444,24.947245 26.6311111,25.3411489 27.1644444,25.3411489 C27.6977778,25.3083236 28.1244444,24.9144197 28.1244444,24.4548652 Z M13.5466667,24.4548652 C13.5466667,26.3915592 11.84,28 9.70666667,28 C7.60888889,28 5.86666667,26.4243845 5.86666667,24.4548652 C5.86666667,22.5181712 7.57333333,20.9097304 9.70666667,20.9097304 C11.84,20.9097304 13.5466667,22.4853458 13.5466667,24.4548652 Z M10.6666667,24.4548652 C10.6666667,23.9624853 10.24,23.5685815 9.70666667,23.5685815 C9.17333333,23.5685815 8.74666667,23.9624853 8.74666667,24.4548652 C8.74666667,24.947245 9.17333333,25.3411489 9.70666667,25.3411489 C10.24,25.3083236 10.6666667,24.9144197 10.6666667,24.4548652 Z M17.4577778,1.54279015 L15.8577778,1.54279015 C15.4666667,0.656506448 14.5777778,0 13.5111111,0 C12.2311111,0 11.1288889,0.951934349 10.9866667,2.1992966 L17.4933333,2.1992966 L17.4933333,1.54279015 L17.4577778,1.54279015 Z" id="Shape" fill="#313131" fill-rule="nonzero"></path>
            <path d="M21.6177778,11.0293083 C21.7955556,11.0293083 21.9377778,11.0621336 22.1155556,11.094959 C22.1155556,11.0621336 22.1155556,11.0293083 22.1155556,10.996483 C22.1155556,10.3728019 21.6533333,9.68347011 20.7288889,9.68347011 L17.4222222,9.68347011 L14.8622222,6.40093787 C14.5422222,6.007034 14.0088889,5.74443142 13.4755556,5.74443142 L12.7288889,5.74443142 C11.84,5.74443142 11.1288889,6.36811254 11.0222222,7.15592028 C11.0222222,7.15592028 10.4888889,12.0797186 10.3111111,13.7538101 C10.1688889,15.3294256 11.5555556,16.2485346 12.6577778,16.2485346 L16.6044444,16.2485346 L16.6044444,20.6799531 C16.6044444,21.4021102 17.2444444,21.992966 18.0266667,21.992966 C18.8088889,21.992966 19.4488889,21.4021102 19.4488889,20.6799531 L19.4488889,15.3294256 C19.4488889,14.0164127 18.7377778,13.2942556 17.3155556,13.2942556 L14.8977778,13.2942556 L15.0044444,11.0293083 L16.1066667,11.9812427 L20.1955556,11.9812427 C20.4088889,11.4232122 20.9422222,11.0293083 21.6177778,11.0293083 Z" id="Path" fill="#D0021B"></path>
            <path d="M13.5111111,5.18640094 C14.8622222,5.18640094 15.9644444,4.13599062 16.0711111,2.85580305 L10.9511111,2.85580305 C11.0577778,4.13599062 12.16,5.18640094 13.5111111,5.18640094 Z" id="Path" fill="#D0021B"></path>
        </g>
    </g>
</svg>