<?xml version="1.0" encoding="iso-8859-1"?>
<!-- Generator: Adobe Illustrator 19.0.0, SVG Export Plug-In . SVG Version: 6.00 Build 0)  -->
<svg xmlns="http://www.w3.org/2000/svg" xmlns:xlink="http://www.w3.org/1999/xlink" version="1.1" id="Layer_1" x="0px" y="0px" viewBox="0 0 512 512" style="enable-background:new 0 0 512 512;" xml:space="preserve" width="512px" height="512px">
<g>
	<g>
		<g>
			<path d="M334.147,358.914c0,16.345,13.298,29.642,29.642,29.642s29.642-13.297,29.642-29.642     c0-16.345-13.298-29.642-29.642-29.642S334.147,342.57,334.147,358.914z M377.263,358.914c0,7.43-6.044,13.474-13.474,13.474     s-13.474-6.044-13.474-13.474s6.044-13.474,13.474-13.474S377.263,351.485,377.263,358.914z" fill="#313131"/>
			<path d="M137.432,329.272c-16.345,0-29.642,13.297-29.642,29.642c0,16.345,13.297,29.642,29.642,29.642     s29.642-13.297,29.642-29.642C167.074,342.569,153.777,329.272,137.432,329.272z M137.432,372.387     c-7.43,0-13.474-6.044-13.474-13.474s6.044-13.474,13.474-13.474s13.474,6.044,13.474,13.474S144.861,372.387,137.432,372.387z" fill="#313131"/>
			<path d="M503.916,167.587h-30.607c-3.014-2.915-4.329-4.82-5.806-6.962c-2.657-3.857-5.405-7.844-15.226-15.24     c-4.628-3.485-9.958-5.883-15.6-8.421c-4.74-2.132-9.642-4.337-13.991-7.209c-3.292-2.173-6.533-5.171-9.966-8.345     c-4.865-4.497-9.894-9.148-16.217-12.676c-6.189-3.454-12.845-5.258-19.282-7.004c-4.527-1.229-8.804-2.389-12.629-4.039     c-3.703-1.597-7.338-3.772-11.186-6.073c-6.021-3.601-12.247-7.324-19.418-9.189c-8.791-2.287-17.558-1.619-25.287-1.029     c-3.381,0.258-6.575,0.501-9.586,0.501c-2.323,0-4.839-0.357-7.502-0.734c-5.286-0.748-11.279-1.597-17.199,0.377     c-6.311,2.104-10.653,6.47-14.483,10.322c-1.775,1.786-3.453,3.473-5.052,4.636c-1.817,1.322-4.161,2.481-6.643,3.709     c-4.534,2.244-9.673,4.787-13.552,9.34c-3.839,4.507-5.586,9.793-7.127,14.457c-0.882,2.669-1.715,5.19-2.766,6.969     c-1.444,2.444-3.581,4.744-5.843,7.18c-3.136,3.376-6.379,6.866-8.274,11.332c-3.367,7.931-3.362,11.932-3.003,16.339     c0.05,0.617,0.093,1.182,0.109,1.761h-23.885l-29.969-29.969c-1.516-1.517-3.572-2.368-5.716-2.368H40.419     c-4.465,0-8.084,3.62-8.084,8.084v24.253H18.863c-4.465,0-8.084,3.62-8.084,8.084v24.253H8.084c-4.465,0-8.084,3.62-8.084,8.084     v150.905c0,4.465,3.62,8.084,8.084,8.084h32.337h24.713c2.17,19.535,12.102,36.754,26.637,48.505H72.758     c-4.465,0-8.084,3.62-8.084,8.084c0,4.465,3.62,8.084,8.084,8.084h355.705c4.466,0,8.084-3.62,8.084-8.084     c0-4.465-3.618-8.084-8.084-8.084H409.45c16.512-13.35,27.097-33.753,27.097-56.591c0-30.742-19.172-57.07-46.181-67.709     l105.149-32.353c3.391-1.043,5.706-4.178,5.706-7.727v-35.032h2.695c4.466,0,8.084-3.62,8.084-8.084v-32.337     C512,171.207,508.382,167.587,503.916,167.587z M225.558,155.805c0.788-1.856,2.949-4.183,5.237-6.646     c2.617-2.818,5.583-6.011,7.915-9.954c1.938-3.279,3.088-6.758,4.201-10.125c1.18-3.572,2.295-6.946,4.083-9.045     c1.722-2.021,4.974-3.63,8.416-5.335c2.976-1.473,6.055-2.997,8.979-5.123c2.645-1.923,4.865-4.154,7.01-6.312     c2.809-2.825,5.463-5.494,8.132-6.383c2.307-0.77,5.954-0.252,9.816,0.294c2.956,0.418,6.307,0.894,9.77,0.894     c3.626,0,7.281-0.278,10.815-0.549c7.098-0.542,13.805-1.053,19.988,0.555c4.928,1.282,9.912,4.263,15.19,7.418     c4.127,2.468,8.397,5.022,13.078,7.042c4.884,2.107,9.926,3.475,14.802,4.798c5.748,1.56,11.179,3.033,15.638,5.521     c4.639,2.588,8.757,6.396,13.117,10.428c3.756,3.474,7.642,7.067,12.034,9.966c5.438,3.59,11.192,6.178,16.269,8.461     c4.793,2.157,9.322,4.194,12.507,6.591c5.882,4.429,8.285,6.94,10.063,9.287H223.953c-0.017-1.169-0.094-2.184-0.166-3.073     C223.594,162.139,223.477,160.705,225.558,155.805z M26.947,183.756h13.474h2.695v16.168H26.947V183.756z M32.337,350.829H16.168     v-16.168h16.168V350.829z M32.337,318.493H16.168v-16.168h16.168V318.493z M32.337,286.156H16.168v-16.168h16.168V286.156z      M64.674,294.24v56.589H48.505v-88.926c0-4.465-3.62-8.084-8.084-8.084H16.168v-37.726h114.126l8.758,70.063H72.758     C68.293,286.156,64.674,289.775,64.674,294.24z M59.284,199.924v-16.168h16.168v16.168H59.284z M91.621,199.924v-16.168h16.168     v16.168H91.621z M123.958,199.924v-16.168h10.126l25.875,25.875l10.85,84.665c-4.778-2.478-9.853-4.458-15.174-5.834     l-10.182-81.456c-0.506-4.045-3.945-7.082-8.022-7.082H123.958z M91.771,302.324c-4.017,3.248-7.681,6.911-10.929,10.929v-10.929     H91.771z M137.432,415.503c-31.204,0-56.589-25.385-56.589-56.589s25.385-56.589,56.589-56.589s56.589,25.385,56.589,56.589     S168.636,415.503,137.432,415.503z M183.092,415.503c14.535-11.751,24.467-28.971,26.637-48.505h81.763     c2.171,19.535,12.103,36.754,26.637,48.505H183.092z M210.189,350.829v-37.726h80.842v37.726H210.189z M420.379,358.914     c0,31.204-25.387,56.589-56.589,56.589S307.2,390.118,307.2,358.914s25.387-56.589,56.589-56.589     S420.379,327.711,420.379,358.914z M485.053,245.154L305.7,300.339c-1.465-2.058-3.865-3.404-6.584-3.404h-97.011     c-4.465,0-8.084,3.62-8.084,8.084v2.695c0,0-5.05-0.106-5.229-0.284l-11.706-91.338h307.966V245.154z M495.832,199.924H173.116     l-29.969-29.969c-1.516-1.517-3.572-2.368-5.716-2.368H48.505v-16.168h96.357l29.969,29.969c1.516,1.517,3.572,2.368,5.716,2.368     h315.284V199.924z" fill="#313131"/>
			<path d="M234.442,259.208h129.347c4.466,0,8.084-3.62,8.084-8.084s-3.618-8.084-8.084-8.084H234.442     c-4.465,0-8.084,3.62-8.084,8.084S229.977,259.208,234.442,259.208z" fill="#313131"/>
		</g>
	</g>
</g>
<g>
</g>
<g>
</g>
<g>
</g>
<g>
</g>
<g>
</g>
<g>
</g>
<g>
</g>
<g>
</g>
<g>
</g>
<g>
</g>
<g>
</g>
<g>
</g>
<g>
</g>
<g>
</g>
<g>
</g>
</svg>
