<?xml version="1.0" encoding="UTF-8"?>
<svg width="36px" height="36px" viewBox="0 0 36 36" version="1.1" xmlns="http://www.w3.org/2000/svg" xmlns:xlink="http://www.w3.org/1999/xlink">
    <!-- Generator: Sketch 50.2 (55047) - http://www.bohemiancoding.com/sketch -->
    <title>Artboard 4 Copy 23</title>
    <desc>Created with Sketch.</desc>
    <defs></defs>
    <g id="Artboard-4-Copy-23" stroke="none" stroke-width="1" fill="none" fill-rule="evenodd">
        <g id="VisitorIcon" transform="translate(8.000000, 3.000000)" fill-rule="nonzero">
            <g id="Group">
                <path d="M18.191,29.2896667 C19.1736667,29.2896667 19.97,28.4933333 19.97,27.5106667 L19.97,11.222 C19.97,9.96166667 19.2226667,8.87066667 18.151,8.36066667 C17.451,8.735 16.6526667,8.94866667 15.805,8.94866667 C14.9573333,8.94866667 14.159,8.735 13.459,8.36066667 C12.3873333,8.87033333 11.64,9.96166667 11.64,11.222 L11.64,12.1573333 C12.6333333,12.82 13.2896667,13.95 13.2896667,15.231 C13.2896667,15.2373333 13.2886667,15.2436667 13.2886667,15.25 L14.126,14.653 C14.5056667,14.3823333 14.953,14.2393333 15.42,14.2393333 C16.1426667,14.2393333 16.8233333,14.589 17.2413333,15.175 C17.9563333,16.1776667 17.7223333,17.5753333 16.7193333,18.2903333 L13.7916667,20.378 C13.677,20.4596667 13.556,20.5296667 13.4296667,20.5873333 L13.4296667,28.1553333 C13.4296667,28.5496667 13.3496667,28.9256667 13.2056667,29.2683333 C13.2766667,29.277 13.346,29.29 13.4193333,29.29 L15.2873333,29.29 L15.2873333,22.2433333 C15.2873333,21.9573333 15.5193333,21.7253333 15.8053333,21.7253333 C16.0913333,21.7253333 16.3233333,21.9573333 16.3233333,22.2433333 L16.3233333,29.2896667 L18.191,29.2896667 Z" id="Shape" fill="#313131"></path>
                <circle id="Oval" fill="#313131" cx="15.8053333" cy="3.95633333" r="3.95633333"></circle>
                <path d="M2.60866667,29.2896667 L4.513,29.2896667 C5.02633333,29.2896667 5.48966667,29.0793333 5.824,28.7413333 C5.78466667,28.552 5.76366667,28.356 5.76366667,28.1553333 L5.76366667,25.299 L0.763666667,25.299 L0.763666667,27.4453333 C0.764,28.4636667 1.59,29.2896667 2.60866667,29.2896667 Z" id="Shape" fill="#313131"></path>
                <path d="M0.03,24.2626667 L5.764,24.2626667 L5.764,20.5873333 C5.63766667,20.5296667 5.51666667,20.4596667 5.402,20.378 L2.474,18.2903333 C1.98933333,17.9446667 1.668,17.43 1.56933333,16.8406667 C1.47066667,16.2513333 1.60666667,15.66 1.952,15.1753333 C2.36966667,14.5893333 3.05066667,14.2396667 3.77333333,14.2396667 C4.24033333,14.2396667 4.68766667,14.3826667 5.06733333,14.6533333 L5.90466667,15.2503333 C5.90466667,15.244 5.90366667,15.2376667 5.90366667,15.2313333 C5.90366667,14.2246667 6.30966667,13.3116667 6.965,12.6446667 C6.751,11.974 6.27966667,11.4156667 5.66833333,11.087 C5.04233333,11.4313333 4.324,11.6276667 3.56066667,11.6276667 C2.79733333,11.6276667 2.079,11.431 1.453,11.087 C0.608,11.541 0.03,12.4336667 0.03,13.4553333 L0.03,24.2626667 Z" id="Shape" fill="#313131"></path>
                <circle id="Oval" fill="#313131" cx="3.561" cy="7.23766667" r="3.35433333"></circle>
                <path d="M8.64466667,30 L10.549,30 C11.568,30 12.3936667,29.174 12.3936667,28.1553333 L12.3936667,20.2493333 L13.9386667,19.001 L16.1183333,17.447 C16.6546667,17.0646667 16.7806667,16.313 16.3983333,15.7766667 C16.1653333,15.45 15.7953333,15.2756667 15.4206667,15.2756667 C15.18,15.2756667 14.9376667,15.3473333 14.728,15.497 L12.954,16.762 C12.3706667,18.0356667 11.0873333,18.9246667 9.597,18.9246667 C8.10666667,18.9246667 6.82333333,18.0356667 6.24,16.762 L4.466,15.497 C4.25633333,15.3476667 4.014,15.2756667 3.77333333,15.2756667 C3.39833333,15.2756667 3.02866667,15.45 2.79566667,15.7766667 C2.41333333,16.313 2.53933333,17.0646667 3.07566667,17.447 L6.00366667,19.5346667 C6.02333333,19.5486667 6.04466667,19.5586667 6.065,19.5713333 L6.80033333,20.0866667 L6.80033333,28.1556667 C6.8,29.174 7.626,30 8.64466667,30 Z" id="Shape" fill="#D0021B"></path>
                <circle id="Oval" fill="#D0021B" cx="9.597" cy="15.231" r="2.657"></circle>
            </g>
        </g>
    </g>
</svg>