<?xml version="1.0" encoding="UTF-8"?>
<svg width="36px" height="36px" viewBox="0 0 36 36" version="1.1" xmlns="http://www.w3.org/2000/svg" xmlns:xlink="http://www.w3.org/1999/xlink">
    <!-- Generator: Sketch 50.2 (55047) - http://www.bohemiancoding.com/sketch -->
    <title>Artboard 2 Copy 2</title>
    <desc>Created with Sketch.</desc>
    <defs></defs>
    <g id="Artboard-2-Copy-2" stroke="none" stroke-width="1" fill="none" fill-rule="evenodd" opacity="0.75999999">
        <g id="grid-view-line" fill-rule="nonzero">
            <path d="M14,4 L6,4 C4.8954305,4 4,4.8954305 4,6 L4,14 C4,15.1045695 4.8954305,16 6,16 L14,16 C15.1045695,16 16,15.1045695 16,14 L16,6 C16,4.8954305 15.1045695,4 14,4 Z M6,14 L6,6 L14,6 L14,14 L6,14 Z" id="Shape" fill="#313131"></path>
            <path d="M30,4 L22,4 C20.8954305,4 20,4.8954305 20,6 L20,14 C20,15.1045695 20.8954305,16 22,16 L30,16 C31.1045695,16 32,15.1045695 32,14 L32,6 C32,4.8954305 31.1045695,4 30,4 Z M22,14 L22,6 L30,6 L30,14 L22,14 Z" id="Shape" fill="#313131"></path>
            <path d="M14,20 L6,20 C4.8954305,20 4,20.8954305 4,22 L4,30 C4,31.1045695 4.8954305,32 6,32 L14,32 C15.1045695,32 16,31.1045695 16,30 L16,22 C16,20.8954305 15.1045695,20 14,20 Z M6,30 L6,22 L14,22 L14,30 L6,30 Z" id="Shape" fill="#313131"></path>
            <path d="M30,20 L22,20 C20.8954305,20 20,20.8954305 20,22 L20,30 C20,31.1045695 20.8954305,32 22,32 L30,32 C31.1045695,32 32,31.1045695 32,30 L32,22 C32,20.8954305 31.1045695,20 30,20 Z M22,30 L22,22 L30,22 L30,30 L22,30 Z" id="Shape" fill="#313131"></path>
            <rect id="Rectangle-path" fill-opacity="0" fill="#000000" x="0" y="0" width="36" height="36"></rect>
        </g>
    </g>
</svg>