<?xml version="1.0" encoding="UTF-8"?>
<svg width="36px" height="36px" viewBox="0 0 36 36" version="1.1" xmlns="http://www.w3.org/2000/svg" xmlns:xlink="http://www.w3.org/1999/xlink">
    <!-- Generator: Sketch 50.2 (55047) - http://www.bohemiancoding.com/sketch -->
    <title>Artboard 2 Copy 9</title>
    <desc>Created with Sketch.</desc>
    <defs></defs>
    <g id="Artboard-2-Copy-9" stroke="none" stroke-width="1" fill="none" fill-rule="evenodd" opacity="0.75999999">
        <g id="bars-line-copy" fill-rule="nonzero">
            <path d="M31.0333333,30 L3.96666667,30 C3.43279141,30 3,29.5522847 3,29 C3,28.4477153 3.43279141,28 3.96666667,28 L31.0333333,28 C31.5672086,28 32,28.4477153 32,29 C32,29.5522847 31.5672086,30 31.0333333,30 Z" id="Shape" stroke="#313131"></path>
            <path d="M31.0333333,18 L3.96666667,18 C3.43279141,18 3,17.5522847 3,17 C3,16.4477153 3.43279141,16 3.96666667,16 L31.0333333,16 C31.5672086,16 32,16.4477153 32,17 C32,17.5522847 31.5672086,18 31.0333333,18 Z" id="Shape" stroke="#313131"></path>
            <path d="M31.0333333,9 L3.96666667,9 C3.43279141,9 3,8.55228475 3,8 C3,7.44771525 3.43279141,7 3.96666667,7 L31.0333333,7 C31.5672086,7 32,7.44771525 32,8 C32,8.55228475 31.5672086,9 31.0333333,9 Z" id="Shape" stroke="#313131"></path>
            <rect id="Rectangle-path" fill-opacity="0" fill="#000000" x="0" y="0" width="36" height="36"></rect>
        </g>
    </g>
</svg>