<?xml version="1.0" encoding="UTF-8"?>
<svg width="36px" height="36px" viewBox="0 0 36 36" version="1.1" xmlns="http://www.w3.org/2000/svg" xmlns:xlink="http://www.w3.org/1999/xlink">
    <!-- Generator: Sketch 50.2 (55047) - http://www.bohemiancoding.com/sketch -->
    <title>Artboard 4 Copy 15</title>
    <desc>Created with Sketch.</desc>
    <defs></defs>
    <g id="Artboard-4-Copy-15" stroke="none" stroke-width="1" fill="none" fill-rule="evenodd">
        <path d="M16.7118831,2.00166118 C16.6887683,2.00716527 16.666229,2.01506248 16.6445953,2.02523715 C10.9893204,4.41068016 7,10.1683016 7,16.8899049 C7,25.7483963 13.9288495,32.9333333 22.4649964,32.9333333 C27.5689556,32.9333333 32.107058,30.361063 34.9244677,26.4027897 C35.0250862,26.2667199 35.0251869,26.0762758 34.9247124,25.9400885 C34.8242379,25.8039012 34.6487345,25.7565974 34.4983111,25.8251596 C32.782962,26.5487344 30.9134393,26.9568062 28.9470615,26.9568062 C20.7935225,26.9568062 14.1885879,20.1129474 14.1885879,11.6678087 C14.1885879,8.27219388 15.2645874,5.14038094 17.0707518,2.6028484 C17.1514396,2.48787112 17.1634107,2.33484704 17.1016753,2.20755962 C17.0399398,2.0802722 16.9150921,2.00056486 16.779171,2.00166118 C16.7567912,1.99944627 16.7342629,1.99944627 16.7118831,2.00166118 Z" id="Shape" fill="#313131" fill-rule="nonzero"></path>
        <g id="Group-4" transform="translate(0.000000, 19.000000)">
            <path d="M10.697913,0.0161203654 C10.0740841,0.0451370231 9.705458,0.161203654 9.109985,0.451370231 C8.316021,0.857603439 7.63548043,1.52498657 7.23849843,2.22138635 C7.21014257,2.27941967 7.18178671,2.33745298 7.18178671,2.33745298 C7.18178671,2.33745298 7.125075,2.30843632 7.04000743,2.27941967 C6.58631371,2.07630306 6.01919657,1.96023643 5.48043528,1.98925309 C4.99838571,2.01826975 4.60140371,2.10531972 4.17606585,2.33745298 C3.41045771,2.71466953 2.84334057,3.32401934 2.53142614,3.99140247 C2.361291,4.36861902 2.19115585,4.97796883 2.19115585,5.26813541 C2.19115585,5.32616873 2.19115585,5.32616873 1.964309,5.44223536 C1.53897114,5.67436862 1.368836,5.79043525 1.02856571,6.13863514 C0.688295425,6.51585169 0.518160282,6.68995164 0.348025139,7.06716819 C0.149534139,7.50241805 0.0361107101,7.85061795 0.00775485292,8.31488447 C-0.0489568614,9.15636754 0.206245853,9.96883396 0.745007139,10.6362171 C0.886786425,10.8393337 1.22705671,11.1585169 1.42554771,11.3036002 C1.70910628,11.5357335 2.04937657,11.6808168 2.44635857,11.7968834 C2.72991714,11.8839334 3.01347571,11.91295 3.552237,11.9419667 C4.20442171,11.9709833 10.6695571,12 12.3992644,12 C14.8945799,11.9709833 15.2915619,11.9419667 16.0004583,11.6227834 C16.4825079,11.4196668 16.7093547,11.2455669 17.049625,10.897367 C17.3331836,10.6072004 17.4749629,10.4040838 17.645098,10.0558839 C17.9570124,9.38850081 18.0704359,8.63406771 17.9570124,7.93766792 C17.8719449,7.44438474 17.645098,6.89306824 17.3615394,6.48683503 C17.248116,6.31273509 16.9078457,5.9645352 16.7377106,5.81945191 C16.3690844,5.50026867 15.858679,5.23911875 15.461697,5.15206878 C15.4049853,5.12305212 15.3482736,5.12305212 15.3482736,5.12305212 C15.3482736,5.12305212 15.3482736,5.00698549 15.3766294,4.89091886 C15.4333411,4.36861902 15.4049853,3.78828587 15.2348501,3.23696937 C14.9229357,2.22138635 14.2991069,1.32186996 13.476787,0.770553466 C13.1365167,0.538420204 12.4276203,0.219236969 12.0022824,0.103170339 C11.7187239,-0.0128962923 11.2650301,-0.0128962923 10.697913,0.0161203654 Z" id="Path-Copy-2" fill="#FFFFFF"></path>
            <path d="M10.320599,2.01253806 C9.83539878,2.03510657 9.54868956,2.12538062 9.08554389,2.35106574 C8.46801633,2.6670249 7.938707,3.18610066 7.62994322,3.72774494 C7.60788867,3.77288196 7.58583411,3.81801899 7.58583411,3.81801899 C7.58583411,3.81801899 7.541725,3.79545047 7.47556133,3.77288196 C7.12268844,3.61490238 6.68159733,3.52462834 6.26256078,3.54719685 C5.88763333,3.56976536 5.57886955,3.63747089 5.24805122,3.81801899 C4.65257822,4.11140964 4.21148711,4.58534838 3.968887,5.10442414 C3.83655966,5.39781479 3.70423233,5.87175354 3.70423233,6.09743865 C3.70423233,6.14257568 3.70423233,6.14257568 3.52779589,6.23284972 C3.19697755,6.41339781 3.06465022,6.50367186 2.79999555,6.774494 C2.53534089,7.06788465 2.40301355,7.20329572 2.27068622,7.49668637 C2.11630433,7.83521404 2.02808611,8.10603618 2.00603155,8.46713237 C1.96192244,9.1216192 2.16041344,9.75353752 2.57945,10.2726133 C2.68972277,10.4305929 2.95437744,10.6788465 3.10875933,10.7916891 C3.32930489,10.9722371 3.59395955,11.0850797 3.90272333,11.1753538 C4.12326889,11.2430593 4.34381444,11.2656278 4.762851,11.2881963 C5.27010578,11.3107648 10.2985444,11.3333333 11.6438723,11.3333333 C13.5846732,11.3107648 13.893437,11.2881963 14.4448009,11.0399427 C14.8197283,10.8819631 14.9961648,10.746552 15.2608194,10.4757299 C15.481365,10.2500448 15.5916378,10.0920652 15.7239651,9.82124306 C15.9665652,9.30216729 16.0547834,8.71538599 15.9665652,8.17374172 C15.9004016,7.79007702 15.7239651,7.3612753 15.5034196,7.04531614 C15.4152013,6.90990507 15.1505467,6.63908293 15.0182193,6.52624037 C14.7315101,6.27798675 14.3345281,6.07487014 14.0257643,6.00716461 C13.9816552,5.9845961 13.9375461,5.9845961 13.9375461,5.9845961 C13.9375461,5.9845961 13.9375461,5.89432205 13.9596007,5.804048 C14.0037098,5.39781479 13.9816552,4.94644456 13.8493279,4.51764284 C13.6067278,3.72774494 13.1215276,3.02812108 12.4819454,2.59931936 C12.2172908,2.41877127 11.6659269,2.17051764 11.3351086,2.0802436 C11.114563,1.98996955 10.7616901,1.98996955 10.320599,2.01253806 Z" id="Path" fill="#D0021B"></path>
        </g>
    </g>
</svg>