<?xml version="1.0" encoding="UTF-8"?>
<svg width="36px" height="36px" viewBox="0 0 36 36" version="1.1" xmlns="http://www.w3.org/2000/svg" xmlns:xlink="http://www.w3.org/1999/xlink">
    <!-- Generator: Sketch 50.2 (55047) - http://www.bohemiancoding.com/sketch -->
    <title>Artboard 4 Copy 29</title>
    <desc>Created with Sketch.</desc>
    <defs></defs>
    <g id="Artboard-4-Copy-29" stroke="none" stroke-width="1" fill="none" fill-rule="evenodd">
        <path d="M30.832,25.2692308 L32.784,25.2692308 C33.392,25.2692308 33.872,24.75 33.872,24.0923077 L31.12,24.0923077 C31.088,24.5076923 30.992,24.9230769 30.832,25.2692308 Z" id="Shape" fill="#D0021B" fill-rule="nonzero"></path>
        <ellipse id="Oval" fill="#D0021B" fill-rule="nonzero" cx="9.424" cy="23.8846154" rx="2.688" ry="2.90769231"></ellipse>
        <ellipse id="Oval" fill="#D0021B" fill-rule="nonzero" cx="28.048" cy="23.8846154" rx="2.688" ry="2.90769231"></ellipse>
        <path d="M12.496,24.0923077 C12.464,24.5076923 12.368,24.9230769 12.208,25.2692308 L25.232,25.2692308 C25.072,24.9230769 24.976,24.5076923 24.944,24.0923077 L12.496,24.0923077 Z" id="Shape" fill="#D0021B" fill-rule="nonzero"></path>
        <path d="M2.128,24.0923077 C2.128,24.75 2.608,25.2692308 3.216,25.2692308 L6.608,25.2692308 C6.448,24.9230769 6.352,24.5076923 6.32,24.0923077 L2.128,24.0923077 Z" id="Shape" fill="#D0021B" fill-rule="nonzero"></path>
        <path d="M31.312,15.4384615 L31.248,15.4384615 C30.608,15.4384615 30,15.2653846 29.456,14.9192308 C26.352,12.9807692 23.6,12.0807692 21.2,11.8038462 L19.984,9.34615385 C19.952,9.24230769 19.856,9.20769231 19.76,9.20769231 L19.216,9.20769231 C19.088,9.20769231 18.992,9.31153846 18.992,9.45 L18.992,11.7692308 C14.736,12.0115385 11.792,14.2615385 10.32,15.7153846 C9.456,16.5807692 8.4,17.2038462 7.28,17.5153846 L5.264,18.0692308 C3.408,18.5884615 2.128,20.3884615 2.128,22.4653846 L2.128,22.95 L2.128,23.8846154 L6.32,23.8846154 C6.32,22.05 7.696,20.5615385 9.392,20.5615385 C11.088,20.5615385 12.464,22.05 12.464,23.8846154 L24.912,23.8846154 C24.912,22.05 26.288,20.5615385 27.984,20.5615385 C29.68,20.5615385 31.12,22.05 31.12,23.8846154 L33.872,23.8846154 L33.872,22.95 L33.872,18.2076923 C33.872,16.6846154 32.72,15.4384615 31.312,15.4384615 Z M6.672,20.3884615 C5.648,21.2884615 4.432,21.7730769 3.184,21.7730769 L3.088,21.7730769 C2.832,21.7730769 2.672,21.3923077 2.832,21.1153846 L3.024,20.8038462 C3.408,20.1115385 4.048,19.7307692 4.688,19.7307692 L6.512,19.7307692 C6.8,19.7307692 6.896,20.1807692 6.672,20.3884615 Z M10.896,17.3076923 C10.64,17.3076923 10.512,16.9615385 10.704,16.7884615 C11.824,15.6807692 14.768,13.1538462 18.992,12.8076923 L18.992,17.3076923 L10.896,17.3076923 Z M14.192,21.9461538 L13.04,21.9461538 L13.04,20.7 L14.192,20.7 L14.192,21.9461538 Z M15.472,20.5615385 L14.32,20.5615385 L14.32,19.3153846 L15.472,19.3153846 L15.472,20.5615385 Z M16.752,21.9461538 L15.6,21.9461538 L15.6,20.7 L16.752,20.7 L16.752,21.9461538 Z M18.032,20.5615385 L16.88,20.5615385 L16.88,19.3153846 L18.032,19.3153846 L18.032,20.5615385 Z M19.312,21.9461538 L18.16,21.9461538 L18.16,20.7 L19.312,20.7 L19.312,21.9461538 Z M20.592,20.5615385 L19.44,20.5615385 L19.44,19.3153846 L20.592,19.3153846 L20.592,20.5615385 Z M21.872,21.9461538 L20.72,21.9461538 L20.72,20.7 L21.872,20.7 L21.872,21.9461538 Z M23.152,20.5615385 L22,20.5615385 L22,19.3153846 L23.152,19.3153846 L23.152,20.5615385 Z M24.432,21.9461538 L23.28,21.9461538 L23.28,20.7 L24.432,20.7 L24.432,21.9461538 Z M27.984,16.4769231 L27.792,16.8576923 C27.632,17.1692308 27.408,17.3076923 27.152,17.3076923 L19.952,17.3076923 L19.952,12.7384615 C22.224,12.7384615 24.784,13.3615385 27.632,15.1269231 C28.048,15.4038462 28.208,15.9923077 27.984,16.4769231 Z M33.296,20.9076923 C33.296,21.0115385 33.232,21.0807692 33.136,21.0807692 L32.816,21.0807692 C32.752,21.0807692 32.688,21.0461538 32.688,20.9769231 L32.24,18.3807692 C32.208,18.2076923 32.336,18.0346154 32.496,18.0346154 L33.04,18.0346154 C33.168,18.0346154 33.296,18.1730769 33.296,18.3115385 L33.296,20.9076923 Z" id="Shape" fill="#313131" fill-rule="nonzero"></path>
    </g>
</svg>