<?xml version="1.0" encoding="UTF-8"?>
<svg width="36px" height="36px" viewBox="0 0 36 36" version="1.1" xmlns="http://www.w3.org/2000/svg" xmlns:xlink="http://www.w3.org/1999/xlink">
    <!-- Generator: Sketch 50.2 (55047) - http://www.bohemiancoding.com/sketch -->
    <title>Artboard 2 Copy 5</title>
    <desc>Created with Sketch.</desc>
    <defs></defs>
    <g id="Artboard-2-Copy-5" stroke="none" stroke-width="1" fill="none" fill-rule="evenodd" opacity="0.75999999">
        <g id="smart-home" fill-rule="nonzero">
            <g id="home-line-(1)">
                <path d="M33.71,17.29 L18.71,2.29 C18.3199625,1.90227641 17.6900375,1.90227641 17.3,2.29 L2.3,17.29 C1.9602232,17.6867603 1.98306773,18.2781942 2.35243678,18.6475632 C2.72180583,19.0169323 3.31323972,19.0397768 3.71,18.7 L18,4.41 L32.29,18.71 C32.6867603,19.0497768 33.2781942,19.0269323 33.6475632,18.6575632 C34.0169323,18.2881942 34.0397768,17.6967603 33.7,17.3 L33.71,17.29 Z" id="Shape" fill="#313131"></path>
                <path d="M28,32 L23,32 L13,32 L8,32 L8,18 L6,20 L6,32 C6,33.1045695 6.8954305,34 8,34 L15,34 L21,34 L28,34 C29.1045695,34 30,33.1045695 30,32 L30,19.76 L28,17.76 L28,32 Z" id="Shape" fill="#313131"></path>
                <rect id="Rectangle-path" fill-opacity="0" fill="#000000" x="0" y="0" width="36" height="36"></rect>
            </g>
            <g id="wifi-line" transform="translate(12.000000, 16.000000)">
                <path d="M11.1833333,2.73333333 C8.03661862,0.653387608 3.94930925,0.663898208 0.813333333,2.76 C0.714489849,2.82668957 0.658733169,2.94104566 0.667066295,3.05999141 C0.675399422,3.17893717 0.746556355,3.28440191 0.853732966,3.33665808 C0.960909576,3.38891426 1.08782319,3.38002291 1.18666667,3.31333333 C4.09956123,1.36859772 7.89438224,1.35940293 10.8166667,3.29 C10.9702461,3.38754724 11.1736747,3.34392518 11.2737553,3.19198456 C11.373836,3.04004393 11.3335934,2.83591987 11.1833333,2.73333333 Z" id="Shape" fill="#313131"></path>
                <path d="M6.01666667,3.57333333 C4.60908057,3.57158634 3.23449766,3.99954447 2.07666667,4.8 C1.96856882,4.91544069 1.95646999,5.09094971 2.04770464,5.22013151 C2.13893929,5.34931331 2.30838979,5.39660313 2.45333333,5.33333333 C4.59170744,3.87110111 7.40829256,3.87110111 9.54666667,5.33333333 C9.69787648,5.41996665 9.89029831,5.37550377 9.98817205,5.23131477 C10.0860458,5.08712577 10.0563343,4.89188148 9.92,4.78333333 C8.77045697,3.99606488 7.40995049,3.57431949 6.01666667,3.57333333 Z" id="Shape" fill="#313131"></path>
                <path d="M6.01666667,5.96666667 C5.0567043,5.96827919 4.12237508,6.27660783 3.35,6.84666667 C3.2147676,6.95936744 3.19048394,7.15779693 3.29454799,7.29978263 C3.39861205,7.44176833 3.59514507,7.47835703 3.74333333,7.38333333 C5.09021483,6.38922142 6.92486691,6.37844519 8.28333333,7.35666667 C8.37752577,7.44743558 8.51610302,7.47472124 8.63767501,7.42643603 C8.759247,7.37815082 8.8413399,7.26322077 8.84758634,7.13256017 C8.85383278,7.00189957 8.78307805,6.87966239 8.66666667,6.82 C7.89553105,6.26300575 6.96792223,5.96430404 6.01666667,5.96666667 Z" id="Shape" fill="#313131"></path>
                <path d="M6,8.14 C5.26362033,8.14 4.66666667,8.73695367 4.66666667,9.47333333 C4.66666667,10.209713 5.26362033,10.8066667 6,10.8066667 C6.73637967,10.8066667 7.33333333,10.209713 7.33333333,9.47333333 C7.33333333,8.73695367 6.73637967,8.14 6,8.14 Z M6,10.14 C5.63181017,10.14 5.33333333,9.84152317 5.33333333,9.47333333 C5.33333333,9.1051435 5.63181017,8.80666667 6,8.80666667 C6.36818983,8.80666667 6.66666667,9.1051435 6.66666667,9.47333333 C6.66666667,9.84152317 6.36818983,10.14 6,10.14 Z" id="Shape" fill="#313131"></path>
                <rect id="Rectangle-path" fill-opacity="0" fill="#000000" x="0" y="0" width="12" height="12"></rect>
            </g>
        </g>
    </g>
</svg>