<?xml version="1.0" encoding="UTF-8"?>
<svg width="36px" height="36px" viewBox="0 0 36 36" version="1.1" xmlns="http://www.w3.org/2000/svg" xmlns:xlink="http://www.w3.org/1999/xlink">
    <!-- Generator: Sketch 50.2 (55047) - http://www.bohemiancoding.com/sketch -->
    <title>Artboard 2 Copy 4</title>
    <desc>Created with Sketch.</desc>
    <defs></defs>
    <g id="Artboard-2-Copy-4" stroke="none" stroke-width="1" fill="none" fill-rule="evenodd">
        <g id="Group" fill-rule="nonzero">
            <path d="M33,19 C32.734197,19.0015368 32.4787188,18.8971865 32.29,18.71 L18,4.41 L3.71,18.71 C3.31323972,19.0497768 2.72180583,19.0269323 2.35243678,18.6575632 C1.98306773,18.2881942 1.9602232,17.6967603 2.3,17.3 L17.3,2.3 C17.6900375,1.91227641 18.3199625,1.91227641 18.71,2.3 L33.71,17.3 C33.9913286,17.5870058 34.073505,18.0145455 33.918621,18.3853946 C33.7637369,18.7562437 33.4018897,18.9983384 33,19 Z" id="Shape" fill="#D0021B"></path>
            <rect id="Rectangle-path" fill-opacity="0" fill="#000000" x="0" y="0" width="36" height="36"></rect>
            <path d="M18,7.79 L30,19.76 L30,32 C30,33.1045695 29.1045695,34 28,34 L8,34 C6.8954305,34 6,33.1045695 6,32 L6,19.83 L18,7.79 Z M23.1833333,20.7333333 C20.0366186,18.6533876 15.9493092,18.6638982 12.8133333,20.76 C12.7144898,20.8266896 12.6587332,20.9410457 12.6670663,21.0599914 C12.6753994,21.1789372 12.7465564,21.2844019 12.853733,21.3366581 C12.9609096,21.3889143 13.0878232,21.3800229 13.1866667,21.3133333 C16.0995612,19.3685977 19.8943822,19.3594029 22.8166667,21.29 C22.9702461,21.3875472 23.1736747,21.3439252 23.2737553,21.1919846 C23.373836,21.0400439 23.3335934,20.8359199 23.1833333,20.7333333 Z M18.0166667,21.5733333 C16.6090806,21.5715863 15.2344977,21.9995445 14.0766667,22.8 C13.9685688,22.9154407 13.95647,23.0909497 14.0477046,23.2201315 C14.1389393,23.3493133 14.3083898,23.3966031 14.4533333,23.3333333 C16.5917074,21.8711011 19.4082926,21.8711011 21.5466667,23.3333333 C21.6978765,23.4199667 21.8902983,23.3755038 21.9881721,23.2313148 C22.0860458,23.0871258 22.0563343,22.8918815 21.92,22.7833333 C20.770457,21.9960649 19.4099505,21.5743195 18.0166667,21.5733333 Z M18.0166667,23.9666667 C17.0567043,23.9682792 16.1223751,24.2766078 15.35,24.8466667 C15.2147676,24.9593674 15.1904839,25.1577969 15.294548,25.2997826 C15.398612,25.4417683 15.5951451,25.478357 15.7433333,25.3833333 C17.0902148,24.3892214 18.9248669,24.3784452 20.2833333,25.3566667 C20.3775258,25.4474356 20.516103,25.4747212 20.637675,25.426436 C20.759247,25.3781508 20.8413399,25.2632208 20.8475863,25.1325602 C20.8538328,25.0018996 20.783078,24.8796624 20.6666667,24.82 C19.895531,24.2630057 18.9679222,23.964304 18.0166667,23.9666667 Z M18,26.14 C17.2636203,26.14 16.6666667,26.7369537 16.6666667,27.4733333 C16.6666667,28.209713 17.2636203,28.8066667 18,28.8066667 C18.7363797,28.8066667 19.3333333,28.209713 19.3333333,27.4733333 C19.3333333,26.7369537 18.7363797,26.14 18,26.14 Z" id="Combined-Shape" fill="#D0021B"></path>
            <g id="wifi-line-copy" transform="translate(12.000000, 18.000000)" fill="#000000" fill-opacity="0">
                <rect id="Rectangle-path" x="0" y="0" width="12" height="12"></rect>
            </g>
        </g>
    </g>
</svg>