<?xml version="1.0" encoding="UTF-8"?>
<svg width="44px" height="44px" viewBox="0 0 44 44" version="1.1" xmlns="http://www.w3.org/2000/svg" xmlns:xlink="http://www.w3.org/1999/xlink">
    <!-- Generator: Sketch 50.2 (55047) - http://www.bohemiancoding.com/sketch -->
    <title>target-line copy</title>
    <desc>Created with Sketch.</desc>
    <defs></defs>
    <g id="Page-1" stroke="none" stroke-width="1" fill="none" fill-rule="evenodd">
        <g id="target-line-copy" transform="translate(-2.000000, -2.000000)" fill-rule="nonzero">
            <path d="M24,2.66666667 C12.2179253,2.66666667 2.66666667,12.2179253 2.66666667,24 C2.66666667,35.7820747 12.2179253,45.3333333 24,45.3333333 C35.7820747,45.3333333 45.3333333,35.7820747 45.3333333,24 C45.3333333,18.3420482 43.0857207,12.9158314 39.0849447,8.91505533 C35.0841686,4.91427926 29.6579518,2.66666667 24,2.66666667 Z M24,42.6666667 C13.6906847,42.6666667 5.33333333,34.3093153 5.33333333,24 C5.33333333,13.6906847 13.6906847,5.33333333 24,5.33333333 C34.3093153,5.33333333 42.6666667,13.6906847 42.6666667,24 C42.6666667,28.9507078 40.7000056,33.6986475 37.1993266,37.1993266 C33.6986475,40.7000056 28.9507078,42.6666667 24,42.6666667 Z" id="Shape" fill="#FF0000"></path>
            <path d="M24,9.6 C16.0470996,9.6 9.6,16.0470996 9.6,24 C9.6,31.9529004 16.0470996,38.4 24,38.4 C31.9529004,38.4 38.4,31.9529004 38.4,24 C38.3926492,16.0501464 31.9498536,9.60735077 24,9.6 Z" id="Shape" fill="#FF0000"></path>
            <rect id="Rectangle-path" fill-opacity="0" fill="#000000" x="0" y="0" width="48" height="48"></rect>
        </g>
    </g>
</svg>