<?xml version="1.0" encoding="UTF-8"?>
<svg width="36px" height="36px" viewBox="0 0 36 36" version="1.1" xmlns="http://www.w3.org/2000/svg" xmlns:xlink="http://www.w3.org/1999/xlink">
    <!-- Generator: Sketch 50.2 (55047) - http://www.bohemiancoding.com/sketch -->
    <title>Artboard 2 Copy 7</title>
    <desc>Created with Sketch.</desc>
    <defs></defs>
    <g id="Artboard-2-Copy-7" stroke="none" stroke-width="1" fill="none" fill-rule="evenodd">
        <g id="visitors" fill="#D0021B" fill-rule="nonzero">
            <ellipse id="Oval" cx="24.3243243" cy="3.41727093" rx="3.89189189" ry="3.41727093"></ellipse>
            <g id="Group" transform="translate(0.000000, 5.980224)">
                <path d="M34.54875,11.1711364 C34.54875,11.1711364 34.5705,11.1810387 34.60125,11.1942417 C34.584,11.1863199 34.56975,11.1803785 34.54875,11.1711364 Z" id="Shape"></path>
                <path d="M34.54875,11.1711364 L29.0835,8.69951747 L25.94175,2.49670474 C25.24275,0.661474921 22.731,-0.108925511 20.94675,1.14734871 C20.50575,1.45762138 20.36925,1.68669503 20.178,1.93821394 C17.6295,5.29311968 15.0525,8.62756062 12.47325,11.9633219 C12.16125,12.3666763 11.886,12.9528936 12.2895,13.6368138 L9.38775,18.4810283 C8.87775,16.2180183 4.99425,15.5360787 3.8625,17.6096243 L1.17525,22.7786348 C0.885,23.3113797 0.672,24.0593348 0.98025,24.4210995 C0.2745,24.5722749 0.05475,25.2971247 0.74625,25.6139989 C1.5945,26.0021698 5.28,27.9232197 6.105,26.5996098 L13.3785,14.201246 C14.06925,14.3821283 14.83125,14.1424922 15.23625,13.6189896 L18.30075,9.65674166 L16.788,20.0304112 L12.918,26.1091149 C11.6025,28.1753988 14.89425,29.9657381 16.20375,27.9067158 C17.4045,26.0219745 18.9615,24.1359128 20.1615,22.2518315 C21.19875,20.6219098 21.19275,18.6896372 21.4605,16.8563878 L27.23475,27.8360794 C28.36875,29.9895037 31.79625,28.43682 30.66825,26.2913175 L24.387,13.6724622 C24.98475,12.0385795 25.0155,10.132053 25.29375,8.43743609 L26.30025,10.4231812 C26.6325,11.0793749 27.588,11.3302336 28.2795,11.6431469 C29.349,12.1257199 30.4185,12.6096133 31.48875,13.0928464 C32.0835,13.3615293 32.73825,13.7708252 33.4005,13.9101178 C35.26425,14.3002692 36.25725,11.9428571 34.54875,11.1711364 Z" id="Shape"></path>
            </g>
            <ellipse id="Oval" cx="3.89189189" cy="34.1727093" rx="1" ry="1"></ellipse>
        </g>
    </g>
</svg>