<?xml version="1.0" encoding="UTF-8"?>
<svg width="36px" height="36px" viewBox="0 0 36 36" version="1.1" xmlns="http://www.w3.org/2000/svg" xmlns:xlink="http://www.w3.org/1999/xlink">
    <!-- Generator: Sketch 50.2 (55047) - http://www.bohemiancoding.com/sketch -->
    <title>Artboard 2 Copy 6</title>
    <desc>Created with Sketch.</desc>
    <defs></defs>
    <g id="Artboard-2-Copy-6" stroke="none" stroke-width="1" fill="none" fill-rule="evenodd" opacity="0.75999999">
        <g id="visitor-line-icon-1">
            <g id="Oval" transform="translate(20.000000, 0.000000)" stroke="#313131">
                <g id="path-1-link">
                    <ellipse id="path-1" cx="4.71774195" cy="3.64028966" rx="4.06451613" ry="3.64028966"></ellipse>
                </g>
                <g id="path-1-link">
                    <ellipse id="path-1" cx="4.71774195" cy="3.64028966" rx="4.06451613" ry="3.64028966"></ellipse>
                </g>
            </g>
            <g id="Group" transform="translate(0.000000, 6.171429)">
                <path d="M34.54875,11.4032682 C34.54875,11.4032682 34.5705,11.4133762 34.60125,11.4268536 C34.584,11.4187672 34.56975,11.4127023 34.54875,11.4032682 Z" id="Shape" fill="#313131" fill-rule="nonzero"></path>
                <path d="M34.54875,11.4032682 L29.0835,8.88029002 L25.94175,2.54858528 C25.24275,0.675220109 22.731,-0.11118894 20.94675,1.17119017 C20.50575,1.48791018 20.36925,1.72174389 20.178,1.97848926 C17.6295,5.40310862 15.0525,8.80683792 12.47325,12.211915 C12.16125,12.6236509 11.886,13.2220497 12.2895,13.9201814 L9.38775,18.8650568 C8.87775,16.5550224 4.99425,15.8589123 3.8625,17.9755453 L1.17525,23.2519659 C0.885,23.795781 0.672,24.5592783 0.98025,24.9285604 C0.2745,25.0828771 0.05475,25.8227889 0.74625,26.1462478 C1.5945,26.5424847 5.28,28.5034533 6.105,27.1523392 L13.3785,14.4963422 C14.06925,14.6809833 14.83125,14.4363677 15.23625,13.9019869 L18.30075,9.85740495 L16.788,20.4466353 L12.918,26.651652 C11.6025,28.7608725 14.89425,30.5884144 16.20375,28.4866064 C17.4045,26.5627008 18.9615,24.6374475 20.1615,22.7142158 C21.19875,21.0504249 21.19275,19.0780005 21.4605,17.2066569 L27.23475,28.4145022 C28.36875,30.6126738 31.79625,29.027726 30.66825,26.8376408 L24.387,13.9565705 C24.98475,12.2887364 25.0155,10.342593 25.29375,8.61276269 L26.30025,10.6397708 C26.6325,11.3095999 27.588,11.5656714 28.2795,11.8850869 C29.349,12.3776875 30.4185,12.8716361 31.48875,13.3649106 C32.0835,13.6391767 32.73825,14.0569776 33.4005,14.1991646 C35.26425,14.5974232 36.25725,12.191025 34.54875,11.4032682 Z" id="Shape" stroke="#313131"></path>
            </g>
            <ellipse id="Oval" fill="#313131" fill-rule="nonzero" cx="3" cy="34.9714286" rx="1" ry="1.02857143"></ellipse>
        </g>
    </g>
</svg>