<?xml version="1.0" encoding="iso-8859-1"?>
<!-- Generator: Adobe Illustrator 19.0.0, SVG Export Plug-In . SVG Version: 6.00 Build 0)  -->
<svg xmlns="http://www.w3.org/2000/svg" xmlns:xlink="http://www.w3.org/1999/xlink" version="1.1" id="Capa_1" x="0px" y="0px" viewBox="0 0 480 480" style="enable-background:new 0 0 480 480;" xml:space="preserve" width="512px" height="512px">
<g>
	<g>
		<path d="M472.88,264.048l-65.496-7.248L400,175.272c-0.378-4.132-3.851-7.289-8-7.272h-56v-56c0-2.674-1.335-5.172-3.56-6.656    l-24-16l-8.88,13.312L320,116.28V168h-16v-40c0-4.418-3.582-8-8-8H8c-4.418,0-8,3.582-8,8v232c0,4.418,3.582,8,8,8h40.8    c4.354,21.599,25.394,35.579,46.993,31.225c12.369-2.493,22.829-10.691,28.207-22.105c9.391,19.932,33.163,28.478,53.095,19.087    c11.414-5.378,19.611-15.838,22.105-28.207h89.6c4.354,21.599,25.394,35.579,46.993,31.225    c12.369-2.493,22.829-10.691,28.207-22.105c9.391,19.932,33.163,28.478,53.095,19.087c11.414-5.378,19.611-15.838,22.105-28.207    H472c4.418,0,8-3.582,8-8v-88C480,267.922,476.933,264.497,472.88,264.048z M389.784,240H352v-24h35.6L389.784,240z M336,184    h48.696l1.456,16H344c-4.418,0-8,3.582-8,8V184z M304,184h16v96h-16V184z M16,136h272v160H16V136z M88,384    c-13.255,0-24-10.745-24-24s10.745-24,24-24s24,10.745,24,24S101.255,384,88,384z M160,384c-13.255,0-24-10.745-24-24    s10.745-24,24-24s24,10.745,24,24S173.255,384,160,384z M328,384c-13.255,0-24-10.745-24-24s10.745-24,24-24s24,10.745,24,24    S341.255,384,328,384z M400,384c-13.255,0-24-10.745-24-24s10.745-24,24-24s24,10.745,24,24S413.255,384,400,384z M464,352h-24.8    c-4.354-21.599-25.394-35.579-46.993-31.225c-12.369,2.493-22.829,10.691-28.207,22.105    c-9.391-19.932-33.163-28.478-53.095-19.087c-11.414,5.378-19.612,15.838-22.105,28.207h-89.6    c-4.354-21.599-25.394-35.579-46.993-31.225c-12.369,2.494-22.829,10.691-28.207,22.105    c-9.391-19.932-33.163-28.478-53.095-19.087C59.491,329.171,51.293,339.631,48.8,352H16v-40h296v-16h16c4.418,0,8-3.582,8-8v-40    c0,4.418,3.582,8,8,8h47.24l0.8,8.72c0.357,3.777,3.317,6.784,7.088,7.2l64.88,7.2L464,352z" fill="#D20F26"/>
	</g>
</g>
<g>
	<g>
		<rect x="392" y="352" width="16" height="16" fill="#D20F26"/>
	</g>
</g>
<g>
	<g>
		<rect x="320" y="352" width="16" height="16" fill="#D20F26"/>
	</g>
</g>
<g>
	<g>
		<rect x="152" y="352" width="16" height="16" fill="#D20F26"/>
	</g>
</g>
<g>
	<g>
		<rect x="80" y="352" width="16" height="16" fill="#D20F26"/>
	</g>
</g>
<g>
	<g>
		<rect x="224" y="152" width="16" height="128" fill="#D20F26"/>
	</g>
</g>
<g>
	<g>
		<rect x="256" y="152" width="16" height="128" fill="#D20F26"/>
	</g>
</g>
<g>
	<g>
		<rect x="192" y="152" width="16" height="128" fill="#D20F26"/>
	</g>
</g>
<g>
	<g>
		<rect x="160" y="152" width="16" height="128" fill="#D20F26"/>
	</g>
</g>
<g>
	<g>
		<rect x="128" y="152" width="16" height="128" fill="#D20F26"/>
	</g>
</g>
<g>
	<g>
		<rect x="96" y="152" width="16" height="128" fill="#D20F26"/>
	</g>
</g>
<g>
	<g>
		<rect x="64" y="152" width="16" height="128" fill="#D20F26"/>
	</g>
</g>
<g>
	<g>
		<rect x="32" y="152" width="16" height="128" fill="#D20F26"/>
	</g>
</g>
<g>
	<g>
		<rect x="440" y="288" width="16" height="16" fill="#D20F26"/>
	</g>
</g>
<g>
	<g>
		<rect x="200" y="40" width="16" height="16" fill="#D20F26"/>
	</g>
</g>
<g>
	<g>
		<rect x="232" y="40" width="88" height="16" fill="#D20F26"/>
	</g>
</g>
<g>
	<g>
		<rect x="312" y="416" width="16" height="16" fill="#D20F26"/>
	</g>
</g>
<g>
	<g>
		<rect x="344" y="416" width="40" height="16" fill="#D20F26"/>
	</g>
</g>
<g>
	<g>
		<rect x="112" y="464" width="16" height="16" fill="#D20F26"/>
	</g>
</g>
<g>
	<g>
		<rect x="144" y="464" width="88" height="16" fill="#D20F26"/>
	</g>
</g>
<g>
	<g>
		<rect y="24" width="16" height="16" fill="#D20F26"/>
	</g>
</g>
<g>
	<g>
		<rect x="32" y="24" width="88" height="16" fill="#D20F26"/>
	</g>
</g>
<g>
	<g>
		<rect x="72" y="0" width="48" height="16" fill="#D20F26"/>
	</g>
</g>
<g>
	<g>
		<rect x="416" y="32" width="48" height="16" fill="#D20F26"/>
	</g>
</g>
<g>
</g>
<g>
</g>
<g>
</g>
<g>
</g>
<g>
</g>
<g>
</g>
<g>
</g>
<g>
</g>
<g>
</g>
<g>
</g>
<g>
</g>
<g>
</g>
<g>
</g>
<g>
</g>
<g>
</g>
</svg>
